<svg width="107" height="34" viewBox="0 0 107 34" fill="none" xmlns="http://www.w3.org/2000/svg">
<g id="airbnb">
<path id="airbnb_2" fill-rule="evenodd" clip-rule="evenodd" d="M30.7874 23.6568C30.8423 23.7948 30.8971 23.9328 30.952 24.0671C31.3794 25.3093 31.5112 26.4843 31.2484 27.6595C30.8865 30.1438 29.2742 32.2925 26.9717 33.2325C26.1496 33.6019 25.2284 33.7697 24.3073 33.7697C24.0444 33.7697 23.7153 33.7361 23.4524 33.7026C22.3667 33.5682 21.2482 33.199 20.1624 32.5611C18.8466 31.7889 17.5308 30.681 16.0839 29.0695C14.6362 30.681 13.3532 31.7889 12.0046 32.5611C10.9196 33.199 9.80109 33.5682 8.71535 33.7026C8.45249 33.7361 8.12334 33.7697 7.8597 33.7697C6.93932 33.7697 6.05092 33.6019 5.19527 33.2325C2.92551 32.2925 1.2813 30.1774 0.919385 27.6595C0.754807 26.4508 0.886625 25.2757 1.31406 24.0335C1.47863 23.5971 1.64321 23.1942 1.80779 22.8249C1.93117 22.5413 2.05455 22.265 2.17462 21.9961L2.17465 21.9961L2.17469 21.996C2.3104 21.6921 2.44189 21.3977 2.56438 21.1127L2.59714 21.0456C4.8669 16.0096 7.33399 10.9065 9.86661 5.87053L9.96489 5.66914C10.2171 5.18731 10.4686 4.67479 10.7208 4.16094L10.755 4.09115C11.0834 3.48689 11.4453 2.84898 11.939 2.24466C13.0248 0.968894 14.5044 0.230286 16.1494 0.230286C17.7616 0.230286 19.2748 0.968894 20.327 2.31181C20.8142 2.87107 21.1325 3.45904 21.4375 4.0226L21.511 4.15831L21.5468 4.23124C21.7985 4.74404 22.0494 5.25545 22.3004 5.73622L22.3994 5.93769C24.9648 10.9737 27.3991 16.0767 29.6689 21.1127L29.7017 21.1463C29.8243 21.4315 29.9559 21.7262 30.0917 22.0304C30.2117 22.299 30.335 22.5751 30.4583 22.8585C30.568 23.1047 30.6777 23.3807 30.7874 23.6568ZM56.3468 8.65719C56.3468 9.86577 55.3928 10.8394 54.208 10.8394C53.024 10.8394 52.0701 9.86577 52.0701 8.65719C52.0701 7.44852 52.9913 6.47494 54.208 6.47494C55.4256 6.50848 56.3468 7.48214 56.3468 8.65719ZM47.5306 13.0552V13.5923C47.5306 13.5923 46.5112 12.2494 44.3405 12.2494C40.7549 12.2494 37.9586 15.036 37.9586 18.8969C37.9586 22.7242 40.7213 25.5443 44.3405 25.5443C46.5439 25.5443 47.5306 24.1679 47.5306 24.1679V24.7386C47.5306 25.0072 47.7279 25.2086 47.9916 25.2086H50.656V12.5851H47.9916C47.7279 12.5851 47.5306 12.8201 47.5306 13.0552ZM44.8662 22.5227C46.051 22.5227 47.0377 21.8848 47.5306 21.1462V16.6474C47.0704 15.9423 46.0174 15.2709 44.8662 15.2709C42.761 15.2709 41.1495 16.6138 41.1495 18.8968C41.1495 21.1797 42.761 22.5227 44.8662 22.5227ZM52.6294 12.5852H55.7876V25.2086H52.6294V12.5852ZM96.6097 13.5924C96.6097 13.5924 97.6291 12.2495 99.8006 12.2495C103.353 12.2495 106.149 15.0696 106.149 18.8969C106.149 22.7242 103.353 25.5443 99.7671 25.5443C97.5964 25.5443 96.5769 24.1679 96.5769 24.1679V24.7386C96.5769 24.9736 96.3796 25.2086 96.116 25.2086H93.4515V6.50845H96.6097V13.5924ZM99.2741 22.4892C98.0566 22.4892 97.1027 21.8513 96.6097 21.1127V16.6139C97.1027 15.9424 98.1556 15.2374 99.2741 15.2374C101.379 15.2374 102.991 16.5804 102.991 18.8633C102.991 21.1463 101.379 22.4892 99.2741 22.4892ZM91.8065 25.2422V17.7218C91.8065 15.6067 91.3791 14.3981 90.2606 13.458C89.3394 12.6523 88.1882 12.2494 86.8068 12.2494C85.59 12.2494 84.3725 12.6188 83.4513 13.5923V13.0552C83.4513 12.8201 83.254 12.5851 82.9911 12.5851H80.4912V25.2086H83.6494V16.4125C84.2742 15.6739 85.2609 15.1702 86.2148 15.1702C87.9908 15.1702 88.6491 16.0096 88.6491 18.0911V25.2422H91.8065ZM72.8271 12.2495C70.6557 12.2495 69.6362 13.5924 69.6362 13.5924V6.50845H66.4781V25.2086H69.1425C69.4061 25.2086 69.6035 24.9736 69.6035 24.7386V24.1679C69.6035 24.1679 70.6229 25.5443 72.7936 25.5443C76.3792 25.5443 79.1755 22.7242 79.1755 18.8969C79.2082 15.0696 76.412 12.2495 72.8271 12.2495ZM69.6362 21.1127C70.1291 21.8513 71.0831 22.4892 72.3006 22.4892C74.4058 22.4892 76.0173 21.1463 76.0173 18.8633C76.0173 16.5804 74.4058 15.2374 72.3006 15.2374C71.1821 15.2374 70.1291 15.9424 69.6362 16.6139V21.1127ZM63.7481 12.2494C64.702 12.2494 65.195 12.4173 65.195 12.4173V15.4053C65.195 15.4053 62.5633 14.4988 60.9191 16.4125V25.2422H57.7609V12.5851H60.4253C60.689 12.5851 60.8863 12.8201 60.8863 13.0552V13.5923C61.4783 12.8873 62.7614 12.2494 63.7481 12.2494ZM16.1166 25.813C14.3406 23.53 13.1886 21.3813 12.7939 19.5684C12.6301 18.7962 12.5966 18.1247 12.6956 17.5205C12.7611 16.9833 12.9585 16.5133 13.2221 16.1103C13.8469 15.2039 14.8991 14.6332 16.1166 14.6332C17.3334 14.6332 18.4192 15.1703 19.0112 16.1103C19.2748 16.5133 19.4721 16.9833 19.5377 17.5205C19.6359 18.1247 19.6032 18.8297 19.4386 19.5684C19.0439 21.3478 17.8927 23.4964 16.1166 25.813ZM26.2479 31.3188C27.8601 30.6474 29.0114 29.1366 29.2415 27.3908C29.3733 26.5179 29.2742 25.6786 29.0114 24.8057C28.9432 24.5745 28.8438 24.3432 28.7351 24.09C28.686 23.9756 28.6349 23.8567 28.584 23.7314C28.4513 23.4611 28.3272 23.1738 28.203 22.8867C28.0805 22.6031 27.958 22.3196 27.8274 22.0527V22.0191C25.5576 17.0168 23.1233 11.9137 20.6234 6.91133L20.5244 6.70986C20.3929 6.45804 20.2613 6.19786 20.1297 5.93767C19.9981 5.67749 19.8664 5.41731 19.735 5.16549C19.4721 4.62831 19.1758 4.12475 18.8138 3.68827C18.1228 2.88254 17.2024 2.44609 16.1822 2.44609C15.1627 2.44609 14.2416 2.88254 13.5505 3.68827C13.1886 4.12475 12.893 4.62831 12.6301 5.16549C12.4983 5.41731 12.3667 5.67749 12.235 5.93767C12.1034 6.19786 11.9718 6.45804 11.84 6.70986L11.7417 6.91133C9.20909 11.8801 6.77475 16.9832 4.50499 21.9856L4.47223 22.0527C4.20859 22.6235 3.94574 23.1942 3.71564 23.7314C3.66528 23.8546 3.61492 23.9716 3.56644 24.0843C3.45648 24.3397 3.35617 24.5727 3.28743 24.8057C2.95905 25.7457 2.89276 26.5851 2.99181 27.4244C3.22191 29.1702 4.37317 30.681 5.9854 31.3524C6.74199 31.6546 7.59685 31.7888 8.48526 31.6882C9.30736 31.5875 10.1295 31.3188 10.9851 30.8153C12.1691 30.1438 13.3867 29.103 14.7353 27.5587C12.5966 24.8392 11.248 22.3213 10.755 20.1055C10.4914 19.0983 10.4586 18.1247 10.5904 17.2518C10.7215 16.4124 11.0179 15.6402 11.4781 14.9688C12.4983 13.4916 14.2088 12.5851 16.1166 12.5851C18.0245 12.5851 19.735 13.458 20.7544 14.9688C21.2154 15.6402 21.511 16.4124 21.6429 17.2518C21.7419 18.1247 21.7084 19.0647 21.4783 20.1055C20.9853 22.3213 19.6695 24.8057 17.498 27.5251C18.8794 29.0695 20.0642 30.1102 21.2482 30.7817C22.103 31.2853 22.9259 31.5538 23.748 31.6546C24.6037 31.7553 25.4585 31.6546 26.2479 31.3188Z" fill="white"/>
</g>
</svg>
