<svg width="87" height="26" viewBox="0 0 87 26" fill="none" xmlns="http://www.w3.org/2000/svg">
<g id="amazon">
<path id="Path" fill-rule="evenodd" clip-rule="evenodd" d="M53.8843 20.3328C48.8711 24.0283 41.606 26 35.3504 26C26.5787 26 18.6822 22.7551 12.7084 17.3583C12.2391 16.9339 12.6595 16.3555 13.2225 16.6861C19.6697 20.4379 27.6412 22.6951 35.8759 22.6951C41.4292 22.6951 47.5382 21.5458 53.1559 19.161C54.0041 18.8005 54.7137 19.7168 53.8843 20.3328Z" fill="white"/>
<path id="Path_2" fill-rule="evenodd" clip-rule="evenodd" d="M55.9685 17.9482C55.3297 17.1294 51.7326 17.5613 50.1178 17.7529C49.6265 17.813 49.5507 17.3849 49.9939 17.0769C52.8594 15.0601 57.5605 15.6423 58.108 16.3183C58.6564 16.998 57.9654 21.7114 55.2735 23.961C54.8604 24.3065 54.4661 24.1224 54.6502 23.6643C55.2548 22.1545 56.6105 18.7707 55.9685 17.9482Z" fill="white"/>
<path id="Path_3" fill-rule="evenodd" clip-rule="evenodd" d="M50.2309 2.83932V0.878863C50.2309 0.582131 50.4558 0.383087 50.7263 0.383087H59.5011C59.783 0.383087 60.0079 0.585879 60.0079 0.878863V2.55758C60.0046 2.83932 59.7675 3.20734 59.3471 3.78948L54.8 10.283C56.4898 10.2417 58.2733 10.4932 59.8058 11.357C60.1513 11.5523 60.245 11.8377 60.2711 12.1195V14.2114C60.2711 14.4968 59.9558 14.8311 59.625 14.6583C56.9257 13.2424 53.34 13.0884 50.3547 14.6733C50.05 14.8386 49.7314 14.508 49.7314 14.2226V12.2359C49.7314 11.9166 49.7347 11.3721 50.0541 10.8876L55.3223 3.33126H50.7377C50.4558 3.33126 50.2309 3.13222 50.2309 2.83932Z" fill="white"/>
<path id="Path_4" fill-rule="evenodd" clip-rule="evenodd" d="M18.2203 15.0716H15.5512C15.2953 15.0528 15.0925 14.8612 15.0737 14.6171V0.912836C15.0737 0.638672 15.3027 0.420808 15.5887 0.420808H18.0777C18.3368 0.432051 18.5438 0.631095 18.5625 0.879024V2.67042H18.6114C19.2607 0.939071 20.4812 0.131653 22.1254 0.131653C23.7965 0.131653 24.8401 0.939071 25.5913 2.67042C26.2374 0.939071 27.7056 0.131653 29.2789 0.131653C30.3976 0.131653 31.6213 0.593535 32.3693 1.63014C33.2133 2.7831 33.0406 4.45814 33.0406 5.92657L33.0374 14.5758C33.0374 14.85 32.8084 15.0716 32.5224 15.0716H29.8566C29.5901 15.0528 29.3759 14.8387 29.3759 14.5758V7.31238C29.3759 6.73407 29.4288 5.29188 29.3009 4.74355C29.1021 3.82345 28.5049 3.56428 27.7317 3.56428C27.0856 3.56428 26.4102 3.99618 26.1356 4.68725C25.8618 5.37824 25.8879 6.53502 25.8879 7.31238V14.5758C25.8879 14.85 25.659 15.0716 25.3738 15.0716H22.7079C22.4374 15.0528 22.2272 14.8387 22.2272 14.5758L22.2232 7.31238C22.2232 5.78382 22.4749 3.53421 20.579 3.53421C18.6603 3.53421 18.7352 5.72752 18.7352 7.31238V14.5758C18.7352 14.85 18.5063 15.0716 18.2203 15.0716Z" fill="white"/>
<path id="Shape" fill-rule="evenodd" clip-rule="evenodd" d="M67.5631 0.131653C71.5245 0.131653 73.6681 3.53421 73.6681 7.8607C73.6681 12.0408 71.2988 15.357 67.5631 15.357C63.6727 15.357 61.5552 11.9543 61.5552 7.71429C61.5552 3.44785 63.6996 0.131653 67.5631 0.131653ZM67.586 2.92966C65.6183 2.92966 65.4945 5.61125 65.4945 7.28247C65.4945 8.95751 65.4676 12.5329 67.5632 12.5329C69.6318 12.5329 69.7296 9.64851 69.7296 7.89092C69.7296 6.73414 69.6807 5.35208 69.332 4.25542C69.0313 3.30151 68.4341 2.92966 67.586 2.92966Z" fill="white"/>
<path id="Path_5" fill-rule="evenodd" clip-rule="evenodd" d="M78.8051 15.0716H76.1466C75.8801 15.0528 75.6659 14.8387 75.6659 14.5758L75.6626 0.867699C75.6846 0.616104 75.9062 0.420808 76.1767 0.420808H78.6511C78.8841 0.432051 79.0756 0.589787 79.1277 0.803904V2.89952H79.1766C79.9237 1.02543 80.9715 0.131653 82.8153 0.131653C84.013 0.131653 85.1805 0.563552 85.9317 1.74657C86.63 2.84322 86.63 4.68725 86.63 6.01293V14.6397C86.5998 14.88 86.379 15.0716 86.1158 15.0716H83.4386C83.1942 15.0528 82.9921 14.8725 82.9652 14.6397V7.19595C82.9652 5.69746 83.1379 3.50415 81.295 3.50415C80.6448 3.50415 80.0476 3.93988 79.751 4.60081C79.3762 5.43837 79.3273 6.2721 79.3273 7.19595V14.5758C79.3233 14.85 79.0903 15.0716 78.8051 15.0716Z" fill="white"/>
<path id="Shape_2" fill-rule="evenodd" clip-rule="evenodd" d="M43.2356 8.52536C43.2356 9.56564 43.2616 10.4332 42.7361 11.3571C42.3116 12.1082 41.6362 12.5702 40.8883 12.5702C39.8633 12.5702 39.2628 11.789 39.2628 10.636C39.2628 8.36005 41.3014 7.94697 43.2356 7.94697V8.52536ZM45.9275 15.0337C45.7515 15.1915 45.4957 15.2028 45.2969 15.0976C44.4104 14.3615 44.2491 14.0198 43.7651 13.3175C42.3002 14.8122 41.2606 15.2591 39.3639 15.2591C37.1152 15.2591 35.3691 13.8733 35.3691 11.0979C35.3691 8.93086 36.5408 7.45494 38.2151 6.7338C39.6645 6.09536 41.6883 5.98268 43.2356 5.80621V5.46067C43.2356 4.82598 43.2844 4.07486 42.9088 3.52654C42.5854 3.03451 41.9621 2.83172 41.4105 2.83172C40.3929 2.83172 39.4877 3.35373 39.2661 4.43539C39.2213 4.67574 39.0453 4.91235 38.8009 4.92359L36.214 4.64568C35.9957 4.59687 35.7521 4.42032 35.8156 4.08611C36.4088 0.946384 39.2474 -3.05176e-05 41.7861 -3.05176e-05C43.0848 -3.05176e-05 44.782 0.345505 45.8077 1.32948C47.1064 2.54256 46.9826 4.16123 46.9826 5.92264V10.0838C46.9826 11.3345 47.5008 11.8828 47.9888 12.5588C48.1583 12.7992 48.1958 13.0884 47.9774 13.2686C47.4332 13.7231 46.4644 14.5681 45.9316 15.0413L45.9275 15.0337Z" fill="white"/>
<path id="Shape_3" fill-rule="evenodd" clip-rule="evenodd" d="M8.23629 8.52536C8.23629 9.56564 8.26236 10.4332 7.73685 11.3571C7.31236 12.1082 6.64019 12.5702 5.88981 12.5702C4.86485 12.5702 4.26764 11.789 4.26764 10.636C4.26764 8.36005 6.30614 7.94697 8.23629 7.94697V8.52536ZM10.9282 15.0337C10.7522 15.1915 10.4964 15.2028 10.2976 15.0976C9.41198 14.3615 9.25391 14.0198 8.76588 13.3175C7.30096 14.8122 6.26541 15.2591 4.36541 15.2591C2.11996 15.2591 0.369873 13.8733 0.369873 11.0979C0.369873 8.93086 1.54474 7.45494 3.2158 6.7338C4.66524 6.09536 6.68908 5.98268 8.23629 5.80621V5.46067C8.23629 4.82598 8.28518 4.07486 7.91365 3.52654C7.58694 3.03451 6.96365 2.83172 6.41532 2.83172C5.3977 2.83172 4.48925 3.35373 4.26764 4.43539C4.22201 4.67574 4.04603 4.91235 3.80568 4.92359L1.21477 4.64568C0.997231 4.59687 0.75688 4.42032 0.816356 4.08611C1.41357 0.946384 4.2489 -3.05176e-05 6.78685 -3.05176e-05C8.08638 -3.05176e-05 9.7835 0.345505 10.8085 1.32948C12.1072 2.54256 11.9833 4.16123 11.9833 5.92264V10.0838C11.9833 11.3345 12.5015 11.8828 12.9904 12.5588C13.1623 12.7992 13.2006 13.0884 12.9822 13.2686C12.438 13.7231 11.4692 14.5681 10.9364 15.0413L10.9282 15.0337Z" fill="white"/>
</g>
</svg>
