<svg width="29" height="36" viewBox="0 0 29 36" fill="none" xmlns="http://www.w3.org/2000/svg">
<g id="apple">
<path id="apple_2" fill-rule="evenodd" clip-rule="evenodd" d="M21.5559 0.278473C21.7836 2.35366 20.9506 4.4393 19.7128 5.9375C18.4749 7.43665 16.4439 8.60102 14.4549 8.44713C14.1842 6.41304 15.1881 4.29069 16.3354 2.9647C17.6146 1.46732 19.7721 0.350177 21.5559 0.278473ZM28.9221 26.2765C28.7076 26.1896 24.2219 24.3728 24.1727 19.1082C24.1337 14.7169 27.6834 12.5588 27.9884 12.3735C27.9947 12.3696 28.0001 12.3666 28.0032 12.3644C25.9207 9.3155 22.6767 8.8968 21.5208 8.84868C19.8321 8.67755 18.1941 9.32377 16.8565 9.85143C16.007 10.1864 15.2793 10.4736 14.7357 10.4736C14.1296 10.4736 13.3808 10.1767 12.5408 9.84347C11.441 9.40715 10.1844 8.90874 8.88655 8.93346C5.87658 8.97722 3.10373 10.6827 1.55234 13.3757C-1.57073 18.7988 0.755191 26.8328 3.7987 31.2332C5.28847 33.3844 7.06372 35.8074 9.3951 35.7192C10.4379 35.6782 11.1797 35.3624 11.9464 35.0357C12.8309 34.6591 13.749 34.2681 15.2021 34.2681C16.5897 34.2681 17.4672 34.6478 18.3111 35.0129C19.1169 35.3615 19.8922 35.6968 21.0512 35.6755C23.4668 35.6309 24.9995 33.4797 26.4768 31.3206C28.1312 28.9035 28.8441 26.5608 28.9236 26.2988C28.9267 26.29 28.9283 26.2836 28.9299 26.2796C28.9291 26.2792 28.9267 26.2782 28.9221 26.2765Z" fill="white"/>
</g>
</svg>
