<svg width="83" height="30" viewBox="0 0 83 30" fill="none" xmlns="http://www.w3.org/2000/svg">
<g id="Figma" clip-path="url(#clip0_173_17207)">
<path id="Vector" d="M0.120605 0.00144801V23.1747L3.10234 23.1839V12.1485H10.2915V9.23163H3.10234V2.91691H12.4652V0L0.120605 0.00144801Z" fill="white"/>
<path id="Vector_2" d="M17.832 4.7055C18.9061 4.7055 19.7766 3.83487 19.7766 2.76089C19.7766 1.68691 18.9061 0.816284 17.832 0.816284C16.7581 0.816284 15.8875 1.68691 15.8875 2.76089C15.8875 3.83487 16.7581 4.7055 17.832 4.7055Z" fill="white"/>
<path id="Vector_3" d="M16.3154 7.62253V23.1794H19.2972V7.62253H16.3154Z" fill="white"/>
<path id="Vector_4" fill-rule="evenodd" clip-rule="evenodd" d="M30.3563 7.16861C26.3968 7.16861 23.6335 10.5174 23.6335 14.4933C23.6335 18.4692 26.3968 21.818 30.3563 21.818C32.1691 21.818 33.663 21.1161 34.7502 19.9737V22.0449C34.7502 24.6223 32.7256 26.7767 30.0832 26.7767C29.1334 26.7767 28.1898 26.4086 27.4379 25.8904L25.9439 28.478C27.1371 29.2472 28.558 29.6936 30.0832 29.6936C34.3076 29.6936 37.7319 26.2691 37.7319 22.0449V7.62235H34.7502V9.01291C33.663 7.8704 32.1691 7.16861 30.3563 7.16861ZM26.6153 14.4933C26.6153 12.0253 28.5031 10.0855 30.6804 10.0855C32.8579 10.0855 34.7456 12.0253 34.7456 14.4933C34.7456 16.9612 32.8579 18.9011 30.6804 18.9011C28.5031 18.9011 26.6153 16.9612 26.6153 14.4933Z" fill="white"/>
<path id="Vector_5" d="M48.4759 10.0855C46.7128 10.0855 45.2835 11.5796 45.2835 13.3427V23.1792H42.3018V7.62235H45.2835V9.04745C46.1572 7.91806 47.4443 7.16861 49.1241 7.16861C51.2134 7.16861 52.8169 8.20635 53.7457 9.79449C54.7784 8.26048 56.463 7.16861 58.4906 7.16861C61.8843 7.16861 63.9966 9.90661 64.0166 13.2941C64.0166 13.3043 64.0166 13.3145 64.0166 13.3249V13.3254V13.3259V13.3265C64.0166 13.3319 64.0166 13.3373 64.0166 13.3427V23.1792H61.0349V13.3427C61.0349 11.5796 59.6055 10.0855 57.8424 10.0855C56.0792 10.0855 54.65 11.5796 54.65 13.3427V23.1792H51.6683V13.3427C51.6683 11.5796 50.239 10.0855 48.4759 10.0855Z" fill="white"/>
<path id="Vector_6" fill-rule="evenodd" clip-rule="evenodd" d="M79.8976 9.38586C78.571 8.01614 76.7544 7.16861 74.6471 7.16861C70.2113 7.16861 67.0632 10.9243 67.0632 15.4007C67.0632 19.8772 70.2113 23.6329 74.6471 23.6329C76.7544 23.6329 78.571 22.7854 79.8976 21.4157V23.1792H82.8793V7.62235H79.8976V9.38586ZM70.045 15.4007C70.045 12.431 72.3189 10.0855 74.9713 10.0855C77.6236 10.0855 79.8976 12.431 79.8976 15.4007C79.8976 18.3706 77.6236 20.716 74.9713 20.716C72.3189 20.716 70.045 18.3706 70.045 15.4007Z" fill="white"/>
</g>
<defs>
<clipPath id="clip0_173_17207">
<rect width="82.7586" height="30" fill="white" transform="translate(0.120605)"/>
</clipPath>
</defs>
</svg>
