<svg width="121" height="36" viewBox="0 0 121 36" fill="none" xmlns="http://www.w3.org/2000/svg">
<path fill-rule="evenodd" clip-rule="evenodd" d="M47.1169 25.9693C51.0535 25.9693 54.2612 22.9097 54.2612 18.7577C54.2612 14.5763 51.0535 11.5461 47.1169 11.5461C43.1804 11.5461 39.9727 14.5763 39.9727 18.7577C39.9727 22.9097 43.1804 25.9693 47.1169 25.9693ZM47.1169 14.3878C49.2746 14.3878 51.1337 16.163 51.1337 18.7576C51.1337 21.323 49.2746 23.1275 47.1169 23.1275C44.9592 23.1275 43.1001 21.3262 43.1001 18.7576C43.1001 16.163 44.9592 14.3878 47.1169 14.3878Z" fill="white"/>
<path fill-rule="evenodd" clip-rule="evenodd" d="M62.5292 25.9693C66.4657 25.9693 69.6734 22.9097 69.6734 18.7577C69.6734 14.5763 66.4657 11.5461 62.5292 11.5461C58.5926 11.5461 55.385 14.5796 55.385 18.7577C55.385 22.9097 58.5926 25.9693 62.5292 25.9693ZM62.5292 14.3878C64.6869 14.3878 66.5461 16.163 66.5461 18.7576C66.5461 21.323 64.6869 23.1275 62.5292 23.1275C60.3715 23.1275 58.5124 21.3262 58.5124 18.7576C58.5124 16.163 60.3715 14.3878 62.5292 14.3878Z" fill="white"/>
<path fill-rule="evenodd" clip-rule="evenodd" d="M84.4435 24.9288V11.9849H81.4734V13.1587H81.3643C80.661 12.3101 79.3125 11.5461 77.6139 11.5461C74.0531 11.5461 70.7908 14.7129 70.7908 18.7836C70.7908 22.8251 74.0531 25.966 77.6139 25.966C79.3157 25.966 80.6642 25.2019 81.3643 24.3273H81.4734V25.3645C81.4734 28.125 80.0189 29.5914 77.6717 29.5914C75.758 29.5914 74.57 28.2063 74.0851 27.0325L71.3623 28.1802C72.1458 30.092 74.2232 32.4298 77.6749 32.4298C81.3417 32.4298 84.4435 30.2547 84.4435 24.9288ZM77.8933 14.3878C80.0221 14.3878 81.695 16.2443 81.695 18.7836C81.695 21.297 80.0221 23.1275 77.8933 23.1275C75.7356 23.1275 73.9278 21.297 73.9278 18.7836C73.9278 16.2443 75.7356 14.3878 77.8933 14.3878Z" fill="white"/>
<path d="M89.3402 4.39285V25.527H86.2898V4.39285H89.3402Z" fill="white"/>
<path fill-rule="evenodd" clip-rule="evenodd" d="M103.654 22.7697L101.227 21.131C100.418 22.334 99.3127 23.1274 97.7208 23.1274C96.1312 23.1274 94.9977 22.3893 94.2688 20.9425L103.789 16.9497L103.465 16.1303C102.874 14.5209 101.066 11.5426 97.3706 11.5426C93.7004 11.5426 90.6533 14.4656 90.6533 18.7542C90.6533 22.799 93.6748 25.9659 97.7208 25.9659C100.983 25.9659 102.871 23.9435 103.654 22.7697ZM100.119 15.8605L93.755 18.5364C93.6748 15.7532 95.887 14.3323 97.4766 14.3323C98.716 14.3323 99.769 14.9598 100.119 15.8605Z" fill="white"/>
<path d="M28.4264 16.8815V13.8219H38.6081C38.7076 14.3551 38.759 14.9859 38.759 15.6687C38.759 17.9642 38.1393 20.8027 36.1421 22.825C34.1995 24.8734 31.7175 25.9659 28.4296 25.9659C22.3353 25.9659 17.2107 20.9393 17.2107 14.7681C17.2107 8.59692 22.3353 3.57022 28.4296 3.57022C31.801 3.57022 34.2027 4.90977 36.0073 6.65577L33.8753 8.81477C32.5813 7.58567 30.8281 6.6298 28.4264 6.6298C23.976 6.6298 20.4954 10.2616 20.4954 14.7681C20.4954 19.2745 23.976 22.9063 28.4264 22.9063C31.3129 22.9063 32.9569 21.7326 34.01 20.6661C34.8642 19.8013 35.4261 18.5657 35.6476 16.8782L28.4264 16.8815Z" fill="white"/>
</svg>
