<svg width="24" height="25" viewBox="0 0 24 25" fill="none" xmlns="http://www.w3.org/2000/svg">
<g id="vuesax/linear/message-programming">
<g id="vuesax/linear/message-programming_2">
<g id="message-programming">
<path id="Vector" d="M8.5 19.885H8C4 19.885 2 18.885 2 13.885V8.88501C2 4.88501 4 2.88501 8 2.88501H16C20 2.88501 22 4.88501 22 8.88501V13.885C22 17.885 20 19.885 16 19.885H15.5C15.19 19.885 14.89 20.035 14.7 20.285L13.2 22.285C12.54 23.165 11.46 23.165 10.8 22.285L9.29999 20.285C9.13999 20.065 8.78 19.885 8.5 19.885Z" stroke="white" stroke-width="1.5" stroke-miterlimit="10" stroke-linecap="round" stroke-linejoin="round"/>
<path id="Vector_2" d="M8 9.61499L6 11.615L8 13.615" stroke="white" stroke-width="1.5" stroke-miterlimit="10" stroke-linecap="round" stroke-linejoin="round"/>
<path id="Vector_3" d="M16 9.61499L18 11.615L16 13.615" stroke="white" stroke-width="1.5" stroke-miterlimit="10" stroke-linecap="round" stroke-linejoin="round"/>
<path id="Vector_4" d="M13 9.28516L11 13.9452" stroke="white" stroke-width="1.5" stroke-miterlimit="10" stroke-linecap="round" stroke-linejoin="round"/>
</g>
</g>
</g>
</svg>
