<svg width="117" height="26" viewBox="0 0 117 26" fill="none" xmlns="http://www.w3.org/2000/svg">
<g id="vercel-logotype-light 1" clip-path="url(#clip0_173_17234)">
<path id="Vector" d="M58.6234 6.5C54.1384 6.5 50.9045 9.425 50.9045 13.8125C50.9045 18.2 54.5406 21.125 59.0298 21.125C61.7392 21.125 64.1281 20.0525 65.6068 18.2447L62.499 16.4491C61.6784 17.3469 60.4312 17.8709 59.0298 17.8709C57.0837 17.8709 55.4304 16.8553 54.8168 15.2303H66.2001C66.2892 14.7753 66.3423 14.3041 66.3423 13.8084C66.3423 9.425 63.1126 6.5 58.6234 6.5ZM54.7843 12.3906C55.292 10.7697 56.6815 9.75 58.6234 9.75C60.5692 9.75 61.9587 10.7697 62.4626 12.3906H54.7843ZM53.8662 2.03125L42.609 21.5312L31.3478 2.03125H35.5687L42.6051 14.2188L49.6412 2.03125H53.8662ZM15.8169 0L30.8278 26H0.805908L15.8169 0ZM82.6734 13.8125C82.6734 16.25 84.2659 17.875 86.7359 17.875C88.4098 17.875 89.6651 17.1153 90.3109 15.8763L93.4309 17.6759C92.139 19.8291 89.7178 21.125 86.7359 21.125C82.2467 21.125 79.0173 18.2 79.0173 13.8125C79.0173 9.425 82.2509 6.5 86.7359 6.5C89.7178 6.5 92.1351 7.79594 93.4309 9.94906L90.3109 11.7488C89.6651 10.5097 88.4098 9.75 86.7359 9.75C84.2701 9.75 82.6734 11.375 82.6734 13.8125ZM116.181 2.03125V20.7188H112.525V2.03125H116.181ZM102.368 6.5C97.8834 6.5 94.6498 9.425 94.6498 13.8125C94.6498 18.2 98.2898 21.125 102.775 21.125C105.484 21.125 107.873 20.0525 109.352 18.2447L106.244 16.4491C105.423 17.3469 104.176 17.8709 102.775 17.8709C100.829 17.8709 99.1754 16.8553 98.5618 15.2303H109.945C110.034 14.7753 110.087 14.3041 110.087 13.8084C110.087 9.425 106.858 6.5 102.368 6.5ZM98.5293 12.3906C99.0373 10.7697 100.423 9.75 102.368 9.75C104.314 9.75 105.704 10.7697 106.208 12.3906H98.5293ZM77.7984 6.90625V10.8428C77.3923 10.725 76.9615 10.6438 76.4984 10.6438C74.1381 10.6438 72.4359 12.2688 72.4359 14.7063V20.7188H68.7798V6.90625H72.4359V10.6438C72.4359 8.58 74.8367 6.90625 77.7984 6.90625Z" fill="white"/>
</g>
<defs>
<clipPath id="clip0_173_17234">
<rect width="115.388" height="26" fill="white" transform="translate(0.805908)"/>
</clipPath>
</defs>
</svg>
