<svg width="117" height="26" viewBox="0 0 117 26" fill="none" xmlns="http://www.w3.org/2000/svg">
<g id="Logo YouTube" clip-path="url(#clip0_173_17194)">
<path id="Subtract" fill-rule="evenodd" clip-rule="evenodd" d="M33.3482 0.776513C34.9472 1.20455 36.2039 2.46113 36.6318 4.06014C37.4053 6.95547 37.4085 12.9999 37.4085 12.9999C37.4085 12.9999 37.4085 19.0444 36.6318 21.9397C36.2039 23.5387 34.9472 24.7953 33.3482 25.2233C30.4529 25.9999 18.8378 25.9999 18.8378 25.9999C18.8378 25.9999 7.22288 25.9999 4.32753 25.2233C2.72853 24.7953 1.47194 23.5387 1.04391 21.9397C0.267334 19.0444 0.267334 12.9999 0.267334 12.9999C0.267334 12.9999 0.267334 6.95547 1.04391 4.06014C1.47194 2.46113 2.72853 1.20455 4.32753 0.776513C7.22288 -6.10352e-05 18.8378 -6.10352e-05 18.8378 -6.10352e-05C18.8378 -6.10352e-05 30.4529 -6.10352e-05 33.3482 0.776513ZM24.7695 13.0002L15.1204 18.5707V7.42959L24.7695 13.0002Z" fill="white"/>
<g id="youtube-paths">
<path id="Vector" d="M45.2506 16.9048L41.0803 1.84415H44.7186L46.1801 8.67127C46.5531 10.3528 46.8252 11.7867 47.0025 12.973H47.1095C47.2318 12.123 47.507 10.6983 47.932 8.69573L49.4453 1.84415H53.0836L48.8613 16.9048V24.1294H45.2476V16.9048H45.2506Z" fill="white"/>
<path id="Vector_2" d="M54.1781 23.6519C53.4444 23.1566 52.9215 22.3861 52.6096 21.3405C52.3009 20.2949 52.145 18.9069 52.145 17.1703V14.8069C52.145 13.055 52.3223 11.6456 52.677 10.5847C53.0316 9.52378 53.585 8.7472 54.3371 8.26108C55.0893 7.77496 56.0767 7.53036 57.2998 7.53036C58.5044 7.53036 59.4674 7.77801 60.195 8.27331C60.9196 8.7686 61.4516 9.54518 61.7879 10.5969C62.1242 11.6517 62.2924 13.055 62.2924 14.8069V17.1703C62.2924 18.9069 62.1273 20.301 61.8003 21.3527C61.473 22.4076 60.9411 23.1781 60.2072 23.6641C59.4735 24.1503 58.4768 24.3949 57.2202 24.3949C55.9239 24.3979 54.9119 24.1472 54.1781 23.6519ZM58.2934 21.1021C58.4951 20.5701 58.5991 19.7049 58.5991 18.5003V13.4281C58.5991 12.2601 58.4982 11.4041 58.2934 10.866C58.0885 10.3248 57.7309 10.0558 57.2171 10.0558C56.7219 10.0558 56.3703 10.3248 56.1685 10.866C55.9636 11.4071 55.8628 12.2601 55.8628 13.4281V18.5003C55.8628 19.7049 55.9605 20.5731 56.1563 21.1021C56.352 21.6341 56.7035 21.9 57.2171 21.9C57.7309 21.9 58.0885 21.6341 58.2934 21.1021Z" fill="white"/>
<path id="Vector_3" d="M74.1275 24.1323H71.2597L70.9417 22.1389H70.8623C70.0826 23.6431 68.9146 24.3952 67.3554 24.3952C66.2762 24.3952 65.4782 24.0405 64.9646 23.3344C64.451 22.625 64.1941 21.5183 64.1941 20.0141V7.8487H67.86V19.7999C67.86 20.5277 67.9394 21.0443 68.0984 21.3532C68.2574 21.6619 68.5234 21.8178 68.8963 21.8178C69.2143 21.8178 69.5201 21.72 69.8136 21.5244C70.1071 21.3286 70.3211 21.081 70.4648 20.7814V7.84564H74.1275V24.1323Z" fill="white"/>
<path id="Vector_4" d="M84.0856 4.79399H80.4473V24.1319H76.861V4.79399H73.2227V1.84668H84.0856V4.79399Z" fill="white"/>
<path id="Vector_5" d="M92.9273 24.1323H90.0595L89.7415 22.1389H89.6621C88.8825 23.6431 87.7146 24.3952 86.1552 24.3952C85.076 24.3952 84.278 24.0405 83.7644 23.3344C83.2508 22.625 82.9939 21.5183 82.9939 20.0141V7.8487H86.6598V19.7999C86.6598 20.5277 86.7392 21.0443 86.8982 21.3532C87.0572 21.6619 87.3232 21.8178 87.6963 21.8178C88.0141 21.8178 88.3199 21.72 88.6134 21.5244C88.9069 21.3286 89.1209 21.081 89.2646 20.7814V7.84564H92.9273V24.1323Z" fill="white"/>
<path id="Vector_6" d="M105.059 10.4504C104.836 9.42317 104.478 8.68022 103.983 8.21855C103.488 7.75689 102.806 7.52759 101.938 7.52759C101.265 7.52759 100.635 7.71714 100.051 8.09931C99.4672 8.48149 99.0147 8.97984 98.6967 9.60049H98.6693V1.02148H95.1379V24.1291H98.1647L98.5377 22.5883H98.6173C98.9016 23.1385 99.3265 23.5696 99.8922 23.8907C100.458 24.2087 101.088 24.3677 101.779 24.3677C103.017 24.3677 103.931 23.7959 104.515 22.6555C105.099 21.512 105.392 19.7296 105.392 17.3021V14.7247C105.392 12.9055 105.279 11.4777 105.059 10.4504ZM101.699 17.0941C101.699 18.2803 101.65 19.2098 101.552 19.8824C101.455 20.5551 101.292 21.0351 101.06 21.3163C100.831 21.6006 100.519 21.7413 100.131 21.7413C99.8279 21.7413 99.5497 21.671 99.2929 21.5273C99.0361 21.3867 98.8282 21.1727 98.6693 20.8914V11.6489C98.7915 11.2056 99.0056 10.8448 99.3082 10.5605C99.6079 10.2762 99.9381 10.1355 100.29 10.1355C100.663 10.1355 100.95 10.2823 101.152 10.5727C101.357 10.8662 101.497 11.3554 101.577 12.0464C101.656 12.7374 101.696 13.7188 101.696 14.9937V17.0941H101.699Z" fill="white"/>
<path id="Vector_7" d="M110.593 18.0327C110.593 19.0783 110.624 19.861 110.685 20.3839C110.746 20.9066 110.874 21.2858 111.07 21.5273C111.266 21.7658 111.565 21.885 111.972 21.885C112.519 21.885 112.898 21.671 113.1 21.246C113.305 20.821 113.415 20.1118 113.433 19.1212L116.595 19.3076C116.613 19.4483 116.622 19.6439 116.622 19.8916C116.622 21.3958 116.209 22.5209 115.387 23.2639C114.565 24.0068 113.4 24.3798 111.895 24.3798C110.089 24.3798 108.823 23.8142 108.098 22.6799C107.371 21.5457 107.01 19.7938 107.01 17.4212V14.5778C107.01 12.135 107.386 10.3495 108.138 9.2244C108.89 8.09927 110.177 7.53671 112.002 7.53671C113.259 7.53671 114.225 7.76602 114.898 8.22769C115.57 8.68934 116.044 9.40477 116.319 10.3801C116.595 11.3554 116.732 12.7006 116.732 14.4188V17.2072H110.593V18.0327ZM111.058 10.3587C110.871 10.588 110.749 10.964 110.685 11.4868C110.624 12.0097 110.593 12.8015 110.593 13.8655V15.0335H113.274V13.8655C113.274 12.8199 113.238 12.028 113.167 11.4868C113.097 10.9457 112.969 10.5666 112.782 10.3434C112.596 10.1233 112.308 10.0101 111.92 10.0101C111.529 10.0132 111.241 10.1294 111.058 10.3587Z" fill="white"/>
</g>
</g>
<defs>
<clipPath id="clip0_173_17194">
<rect width="116.465" height="26" fill="white" transform="translate(0.267578)"/>
</clipPath>
</defs>
</svg>
